<?xml version="1.0" standalone="no"?>
<!DOCTYPE svg PUBLIC "-//W3C//DTD SVG 20010904//EN"
 "http://www.w3.org/TR/2001/REC-SVG-20010904/DTD/svg10.dtd">
<svg version="1.0" xmlns="http://www.w3.org/2000/svg"
 width="70.000000pt" height="70.000000pt" viewBox="0 0 70.000000 70.000000"
 preserveAspectRatio="xMidYMid meet">
<metadata>
Created by potrace 1.11, written by Peter Selinger 2001-2013
</metadata>
<g transform="translate(0.000000,70.000000) scale(0.100000,-0.100000)"
fill="#000000" stroke="none">
<path d="M409 648 c19 -52 -6 -91 -93 -149 -72 -47 -115 -114 -118 -183 -1
-20 -5 -39 -9 -42 -11 -6 -39 49 -39 77 0 43 -12 10 -17 -48 -6 -66 -8 -69
-25 -57 -18 13 -51 11 -55 -3 -2 -6 16 -19 41 -28 35 -13 48 -25 56 -49 27
-79 124 -148 210 -149 90 -1 182 61 217 145 10 24 22 38 33 38 59 0 66 31 12
52 -29 11 -41 23 -49 49 -10 32 -11 33 -12 7 -1 -38 -17 -43 -29 -10 -5 15
-19 38 -31 51 -20 22 -25 35 -22 53 0 4 -8 12 -19 18 -11 6 -18 15 -15 20 14
22 8 156 -8 187 -21 39 -41 54 -28 21z"/>
</g>
</svg>
